<svg xmlns="http://www.w3.org/2000/svg" width="17" height="13" viewBox="0 0 17 13"><g><g><path fill="#d1d1d1" d="M8.925 7.775c2.054.92 3.542 2.833 3.825 5.1h-1.417c-.354-2.409-2.479-4.25-4.958-4.25-2.48 0-4.604 1.841-4.958 4.25H0c.283-2.267 1.77-4.18 3.825-5.1-1.063-.78-1.7-2.054-1.7-3.4a4.262 4.262 0 0 1 4.25-4.25 4.262 4.262 0 0 1 4.25 4.25c0 1.346-.638 2.62-1.7 3.4zm-2.55-.568a2.84 2.84 0 0 0 2.833-2.832 2.841 2.841 0 0 0-2.833-2.833 2.841 2.841 0 0 0-2.833 2.833 2.84 2.84 0 0 0 2.833 2.832zm8.287.426C16.08 8.341 17 9.829 17 11.387h-1.417c0-1.346-.991-2.48-2.266-2.762-.355-.07-.567-.354-.567-.709 0-.212.07-.424.283-.567.638-.495 1.134-1.345 1.134-2.266 0-1.346-.921-2.55-2.55-2.833-.071-.213-.142-.425-.284-.638-.141-.283-.283-.566-.496-.779 2.48-.283 4.746 1.7 4.746 4.25 0 .92-.354 1.841-.92 2.55z"/></g></g></svg>