<svg xmlns="http://www.w3.org/2000/svg" width="16" height="16" viewBox="0 0 16 16"><g><g><path fill="#d1d1d1" d="M16 9.12v6.213a.734.734 0 0 1-.714.645H.678A.68.68 0 0 1 0 15.3V.699C0 .324.306.02.678.021h6.22A.68.68 0 0 1 7.576.7v7.74h7.746c.372 0 .678.307.678.682zm-1.363 5.534V9.766H6.86a.68.68 0 0 1-.678-.677V1.344H1.324v1.842h1.323a.68.68 0 0 1 .678.678c0 .371-.339.678-.678.678H1.324V6.51h1.323c.372 0 .678.307.678.678 0 .372-.339.678-.678.678H1.324v1.968h1.323a.68.68 0 0 1 .678.678c-.032.372-.339.679-.678.679H1.324v3.463h2.93v-1.322a.679.679 0 0 1 1.356 0v1.322h2.106v-1.322a.679.679 0 0 1 1.356 0v1.322h2.106v-1.322a.68.68 0 0 1 1.357 0v1.322z"/></g></g></svg>