<svg xmlns="http://www.w3.org/2000/svg" width="16" height="15" viewBox="0 0 16 15"><g><g><path fill="#d1d1d1" d="M16 2.004V14.25c0 .345-.28.625-.625.625H.625A.626.626 0 0 1 0 14.25V2.004c0-.344.28-.625.625-.625h3.078V.75a.625.625 0 0 1 1.25 0v.63h6.094V.75a.625.625 0 0 1 1.25 0v.63h3.078c.345 0 .625.28.625.625zm-1.25.626h-2.453v.63a.625.625 0 1 1-1.25 0v-.63H4.953v.63a.625.625 0 1 1-1.25 0v-.63H1.25v10.995h13.5zM8 5.998a.844.844 0 1 1 0 1.687.844.844 0 0 1 0-1.687zM8 9.67a.844.844 0 1 1 0 1.688.844.844 0 0 1 0-1.688zM4.328 5.998a.844.844 0 1 1 0 1.687.844.844 0 0 1 0-1.687zm7.344 0a.844.844 0 1 1 0 1.687.844.844 0 0 1 0-1.687zM4.328 9.67a.844.844 0 1 1-.001 1.688.844.844 0 0 1 0-1.688zm7.344 0a.844.844 0 1 1 0 1.688.844.844 0 0 1 0-1.688z"/></g></g></svg>