<svg xmlns="http://www.w3.org/2000/svg" width="15" height="15" viewBox="0 0 15 15"><g><g><path fill="#d1d1d1" d="M15 7.5c0 4.135-3.365 7.5-7.5 7.5C3.364 15 0 11.635 0 7.5 0 3.364 3.364 0 7.5 0 11.635 0 15 3.363 15 7.5zm-1.579 0A5.927 5.927 0 0 0 7.5 1.58 5.927 5.927 0 0 0 1.579 7.5 5.928 5.928 0 0 0 7.5 13.42a5.928 5.928 0 0 0 5.921-5.92zm-1.224.44a.67.67 0 0 1-.671.67H8.597A1.288 1.288 0 1 1 6.83 6.841v-3.52a.671.671 0 0 1 1.342 0v3.52c.173.107.32.254.426.427h2.929c.37 0 .671.3.671.671z"/></g></g></svg>